HIERARCHY
ROOT Hips
{
	OFFSET -0.179506 -22.333345 2.821913
	CHANNELS 6 Xposition Yposition Zposition Zrotation Yrotation Xrotation 
	JOINT LeftUpLeg
	{
		OFFSET 6.951974 -9.140623 -0.681533
		CHANNELS 3 Zrotation Yrotation Xrotation
		JOINT LeftLeg
		{
			OFFSET 3.427654 -37.519855 -0.449580
			CHANNELS 3 Zrotation Yrotation Xrotation
			JOINT LeftFoot
			{
				OFFSET -1.359570 -39.796059 -4.369333
				CHANNELS 3 Zrotation Yrotation Xrotation
				JOINT LeftToe
				{
					OFFSET 2.635814 -5.579078 11.928840
					CHANNELS 3 Zrotation Yrotation Xrotation
					End Site
					{
						OFFSET 0.000000 0.000000 0.000000
					}
				}
			}
		}
	}
	JOINT RightUpLeg
	{
		OFFSET -6.767048 -9.052170 -0.431982
		CHANNELS 3 Zrotation Yrotation Xrotation
		JOINT RightLeg
		{
			OFFSET -3.829005 -38.256897 -0.885003
			CHANNELS 3 Zrotation Yrotation Xrotation
			JOINT RightFoot
			{
				OFFSET 1.577377 -39.841461 -4.231180
				CHANNELS 3 Zrotation Yrotation Xrotation
				JOINT RightToe
				{
					OFFSET -2.537174 -4.814398 12.334795
					CHANNELS 3 Zrotation Yrotation Xrotation
					End Site
					{
						OFFSET 0.000000 0.000000 0.000000
					}
				}
			}
		}
	}
	JOINT Spine
	{
		OFFSET -0.253288 10.896323 -2.669631
		CHANNELS 3 Zrotation Yrotation Xrotation
		JOINT Spine1
		{
			OFFSET 0.548704 13.518043 0.109247
			CHANNELS 3 Zrotation Yrotation Xrotation
			JOINT Spine2
			{
				OFFSET 0.145701 5.292222 2.542457
				CHANNELS 3 Zrotation Yrotation Xrotation
				JOINT Neck
				{
					OFFSET -0.277840 21.387037 -4.285703
					CHANNELS 3 Zrotation Yrotation Xrotation
					JOINT Head
					{
						OFFSET 0.515184 6.496960 5.134897
						CHANNELS 3 Zrotation Yrotation Xrotation
						End Site
						{
							OFFSET 0.000000 0.000000 0.000000
						}
					}
				}
				JOINT LeftShoulder
				{
					OFFSET 7.884473 12.174932 -3.408961
					CHANNELS 3 Zrotation Yrotation Xrotation
					JOINT LeftArm
					{
						OFFSET 9.097692 3.046888 -0.886815
						CHANNELS 3 Zrotation Yrotation Xrotation
						JOINT LeftForeArm
						{
							OFFSET 25.961220 -1.277207 -2.745643
							CHANNELS 3 Zrotation Yrotation Xrotation
							JOINT LeftHand
							{
								OFFSET 24.923361 0.898606 -0.117091
								CHANNELS 3 Zrotation Yrotation Xrotation
								End Site
								{
									OFFSET 0.000000 0.000000 0.000000
								}
							}
						}
					}
				}
				JOINT RightShoulder
				{
					OFFSET -8.175920 11.883285 -3.861528
					CHANNELS 3 Zrotation Yrotation Xrotation
					JOINT RightArm
					{
						OFFSET -9.601238 3.255117 -0.914307
						CHANNELS 3 Zrotation Yrotation Xrotation
						JOINT RightForeArm
						{
							OFFSET -25.374195 -1.332924 -2.140099
							CHANNELS 3 Zrotation Yrotation Xrotation
							JOINT RightHand
							{
								OFFSET -25.529810 0.777228 -0.555919
								CHANNELS 3 Zrotation Yrotation Xrotation
								End Site
								{
									OFFSET 0.000000 0.000000 0.000000
								}
							}
						}
					}
				}
			}
		}
	}
}
MOTION
Frames: 13
Frame Time: 0.033333
4.112764 103.732040 -32.688362 -5.662434 48.874546 -11.630176 -7.453396 -1.078213 -5.279563 0.472617 2.661566 8.491435 1.937950 14.743733 -10.493674 7.962543 1.229972 -1.011589 -3.455113 -1.003082 -13.379217 -0.566135 -4.586026 62.861283 3.226915 -9.138102 1.872046 6.958791 -1.526700 1.022814 -0.984457 3.811467 6.685996 4.851943 -2.974628 2.173406 0.829998 2.216428 -2.936163 -1.433575 9.679632 2.362527 4.063527 15.875529 -0.542391 -16.170011 3.006249 0.091720 -27.342837 -4.429737 -6.516261 8.193566 -20.521330 -22.195955 8.806146 -6.541681 -5.413255 14.080223 -3.257879 -1.881189 43.094844 -3.861093 11.391873 -82.116028 78.161068 -71.645780 -5.331647 9.765774 -12.012101 
6.119795 104.315643 -31.429171 -7.896920 57.649389 -12.861603 -7.669634 -1.301740 -2.713783 -0.234955 -1.311916 6.671643 0.565132 11.756454 -9.781712 7.314912 1.078419 -0.342330 -4.359783 -0.022317 -16.392651 -0.641136 -4.097085 53.558739 3.145578 -10.208898 -2.564484 5.920962 -1.729855 1.015992 -0.265229 2.972810 6.571275 4.457107 -2.067725 1.579661 0.461298 1.995582 -2.677631 -1.272730 5.277520 2.319074 4.272443 12.400018 -0.418658 -17.057664 6.250127 0.131279 -30.904940 -4.129380 -6.059329 10.185135 -19.935414 -24.271677 10.647694 -6.148397 -8.155281 13.330265 -4.690706 -2.507907 41.133231 -2.268752 8.696724 -94.926122 71.726634 -85.978853 -7.251047 9.353355 -13.850098 
8.252854 104.512550 -30.332735 -11.909274 67.866868 -15.782276 -7.798119 -2.735619 -1.276045 -1.130528 -6.934779 7.547662 -0.189422 9.300578 -9.980590 6.556713 1.049030 -0.125330 -4.964841 1.514323 -17.606215 -1.142381 -0.993130 43.490527 4.602663 -10.839424 -3.805764 5.171779 -1.992227 0.818998 0.586598 2.312126 6.698404 4.200911 -1.346581 0.608466 0.160237 1.642079 -2.321599 -0.949050 0.051779 2.252641 3.993440 8.324963 -0.962716 -17.374913 8.888143 -0.180942 -33.900562 -3.923937 -5.111139 11.979514 -21.432949 -25.583477 13.008813 -6.331178 -10.189471 12.133247 -5.559574 -3.555441 38.206416 -1.119962 5.712468 -87.544163 65.519377 -79.814144 -8.745492 7.858149 -13.419332 
10.219738 104.217033 -29.463705 -17.153470 77.797635 -20.440944 -8.733370 -4.657328 -0.661998 -2.586021 -12.015793 10.248497 -0.261945 7.570860 -10.521288 5.782566 0.903037 -0.176916 -6.507851 2.136398 -17.692354 -1.045249 2.714846 38.178837 6.758666 -9.890488 -2.413748 4.505325 -1.998932 0.640304 0.671626 2.270009 6.825715 3.487270 0.209998 -0.002287 -0.593203 1.612932 -1.621825 -0.194109 -6.357332 1.677407 4.122957 1.718823 -1.525217 -17.413405 11.335186 -0.916440 -34.523901 -3.537739 -3.889045 14.121699 -24.258647 -26.853878 15.957602 -5.300065 -12.473724 11.148260 -6.109595 -4.212854 33.327397 -0.522880 2.242312 -72.737475 59.539005 -68.501734 -11.438665 6.940138 -13.034875 
11.438276 103.606071 -28.772322 -29.158615 85.415025 -32.762989 -8.757978 -5.918239 -1.226418 -4.650517 -15.182250 13.873134 0.066432 6.662782 -11.386466 5.666104 0.709842 -0.431661 -7.757786 1.773765 -18.335551 -0.114176 3.985244 38.701990 7.579827 -9.487447 -1.476407 4.511612 -1.834848 0.642946 0.436490 2.414069 6.632989 3.275312 1.194094 0.221862 -1.244908 1.824866 -1.858942 0.702930 -11.368027 1.217957 4.431493 -3.665482 -2.492580 -17.051354 13.029699 -2.047397 -33.924045 -2.854558 -3.347416 14.917617 -24.974741 -27.165829 16.986464 -4.625103 -12.652606 10.525432 -5.887641 -5.166503 29.092330 -0.055062 -1.233169 -59.987838 53.155769 -60.179250 -12.893093 6.307088 -12.684365 
12.069667 102.954956 -27.875353 -168.240587 86.754284 -172.261498 -9.589802 -7.604259 -1.587438 -5.774971 -18.837551 16.480785 0.414893 6.029761 -12.954294 6.321940 0.544072 -0.723731 -8.706927 0.698300 -20.620848 1.434990 2.995845 45.952059 7.219107 -9.430517 -3.689280 4.684237 -1.687714 0.802007 0.046287 2.620673 6.670813 3.217301 1.967382 0.095148 -1.987802 1.957507 -2.580505 0.969645 -15.727731 1.525703 4.983271 -9.843173 -2.812971 -16.426994 14.810329 -2.540643 -32.593171 -3.155011 -3.540083 16.038654 -24.536000 -28.777602 17.537192 -4.214596 -13.329798 9.697111 -5.548489 -5.984298 25.119249 -0.778673 -3.569653 -50.699931 47.056341 -53.933545 -13.586229 6.281172 -10.519915 
12.398593 102.772278 -26.782835 177.585002 81.498496 173.611123 -9.361034 -9.076003 -3.064037 -7.445529 -19.686867 19.414114 0.250572 4.764681 -13.046129 6.061073 0.408719 -0.822460 -9.060426 -0.401414 -19.143489 1.179829 2.375404 46.152711 7.181130 -10.427114 -6.347234 4.531696 -1.622926 0.717297 -0.286336 3.470617 7.025606 2.506388 2.784162 -0.348811 -2.151758 2.114831 -3.121122 1.293901 -19.122212 0.942222 5.482049 -12.781746 -3.751232 -15.999375 16.035471 -3.351315 -30.812947 -2.535852 -3.701767 17.149001 -24.711571 -30.297422 16.981181 -2.952940 -16.157931 9.389574 -5.910730 -6.354606 22.472141 -1.727082 -4.593555 -42.317009 40.136562 -47.540676 -10.922603 6.082601 -9.906252 
12.635257 103.078011 -25.391001 174.170555 77.850446 171.422886 -8.824068 -10.432218 -4.235002 -7.587304 -21.008193 19.015684 -0.665784 4.073723 -11.535092 5.246626 0.520699 -0.397773 -8.257041 -1.330296 -15.320338 0.137916 1.642311 39.947962 7.383900 -11.338085 -8.469092 4.123584 -1.732098 0.754551 -0.682135 4.305336 5.969183 1.855136 3.343459 -0.203684 -2.009543 2.382092 -3.735814 1.469929 -21.405112 0.100213 6.490005 -15.415126 -5.215493 -15.469892 16.833582 -3.810700 -28.940597 -1.691743 -3.817442 17.208230 -23.669447 -31.162463 15.368997 -3.025373 -17.389003 8.433212 -5.713562 -6.104846 21.080417 -2.529860 -5.161614 -37.029646 36.085040 -44.008325 -8.462105 6.588870 -9.871236 
12.807851 103.665749 -23.923550 174.718609 75.429957 173.133422 -7.079666 -10.672642 -6.871518 -8.167107 -20.572265 20.460119 -2.643150 3.396918 -9.833877 3.827718 0.736368 0.178749 -6.792088 -1.993156 -9.507515 -0.931961 1.808789 28.442514 7.971225 -11.731485 -9.325314 3.560479 -1.987658 0.754466 -0.083814 5.162846 5.320826 1.165137 3.622772 -0.475889 -1.533077 2.523180 -3.874834 1.390932 -23.476761 -1.100369 6.772706 -17.131964 -5.972191 -14.825913 16.708598 -3.888302 -26.934130 -1.438265 -4.777957 16.589301 -22.424884 -31.503351 13.923726 -3.660918 -15.756826 7.633755 -5.348308 -5.268278 19.601844 -3.296220 -6.040158 -31.162041 33.189783 -38.907586 -6.403076 6.535519 -8.501087 
12.617852 104.130104 -22.306658 174.533786 74.030736 174.049863 -5.861405 -10.997222 -9.344148 -8.167572 -20.179764 21.477156 -3.135484 4.786554 -10.265499 3.253248 0.822095 0.368082 -5.950652 -2.781002 -7.665527 -1.850500 0.569049 22.841923 8.251653 -12.105469 -8.748051 3.258804 -1.998578 0.808915 0.137745 5.590062 5.293018 0.439447 4.146555 -1.353162 -1.047646 2.750338 -3.832249 1.701850 -24.734264 -2.352182 7.441277 -18.468174 -6.925029 -14.221356 17.223687 -3.918958 -25.542558 -1.276535 -5.243514 16.294213 -21.176786 -32.420334 12.998688 -3.978251 -15.749406 6.684050 -4.840369 -4.832881 18.415175 -3.543029 -6.615589 -26.090447 29.449833 -35.256000 -4.843464 6.519168 -7.725673 
12.296157 104.450706 -20.776468 174.806920 73.684039 175.422245 -4.631011 -10.351859 -10.729711 -7.121186 -18.933885 20.860850 -3.586888 6.157988 -10.547178 2.615093 0.935429 0.655044 -5.676134 -3.617921 -6.085226 -2.196349 -0.148290 17.348093 9.391480 -11.183699 -7.734719 2.745250 -2.043356 0.968108 0.383760 5.735539 5.128207 -0.197666 4.682321 -2.075752 -0.608888 2.859684 -3.475176 1.943757 -26.043563 -3.130661 7.982741 -19.294266 -7.741702 -13.332634 17.099113 -3.611830 -24.261877 -1.288870 -5.977084 15.207259 -19.967263 -32.926292 11.517456 -3.832293 -15.238699 5.630428 -4.243318 -4.002639 17.199609 -3.673571 -6.875191 -21.797470 27.173838 -31.824954 -3.309189 6.312766 -6.129247 
11.971916 104.581970 -19.262115 174.413373 74.708425 176.177206 -3.357187 -9.050823 -10.404125 -5.330863 -18.298479 18.492170 -4.090507 7.271363 -10.305363 2.234306 1.112021 0.942605 -5.983708 -4.753261 -5.724927 -2.240028 -0.884721 13.866071 10.699662 -10.064673 -6.527331 2.268812 -2.076331 1.147473 0.530333 5.463188 4.797401 -0.808905 5.303350 -2.752792 -0.111590 2.870527 -2.895918 1.814039 -26.650475 -3.585946 8.195063 -19.421461 -7.848586 -12.752899 17.190621 -3.100932 -23.374685 -0.465194 -6.672916 13.819502 -19.020596 -32.891123 10.940614 -3.567396 -14.341252 4.604657 -3.643046 -3.371638 16.190101 -3.557567 -6.862923 -18.534838 26.335788 -28.578841 -2.257479 6.389518 -3.606641 
11.675376 104.557541 -17.716974 172.697393 76.678124 175.661836 -2.467148 -7.345843 -8.801863 -2.901469 -17.561756 13.710455 -4.728918 8.379373 -9.521023 1.785431 1.445567 1.310892 -6.805808 -5.936359 -6.023784 -2.407544 -1.649271 11.247787 12.029068 -9.594856 -4.869224 1.646320 -2.141120 1.399047 0.711976 4.959256 4.599637 -1.526986 5.665107 -3.753740 0.275572 2.885517 -2.056759 1.679577 -27.171511 -4.111909 8.363661 -18.841845 -7.897314 -12.329846 16.984163 -2.658454 -22.748586 0.324630 -7.083824 12.796903 -18.661570 -32.900625 11.717630 -3.135155 -13.381446 3.844184 -3.065866 -2.827066 14.750847 -3.233325 -6.982524 -15.758434 26.661081 -25.639781 -2.336948 6.794226 -0.120470 
